<svg width="216" height="211" viewBox="0 0 216 211" fill="none" xmlns="http://www.w3.org/2000/svg">
<path d="M107.802 206.779C106.838 206.771 105.862 206.765 104.904 206.734L104.934 205.745C105.882 205.775 106.852 205.789 107.802 205.79C108.757 205.79 109.73 205.774 110.696 205.742L110.727 206.73C109.751 206.763 108.767 206.779 107.802 206.779ZM99.0948 206.361C97.1708 206.175 95.2278 205.922 93.3198 205.61L93.4723 204.634C95.3599 204.942 97.2822 205.192 99.1859 205.377L99.0948 206.361ZM116.536 206.351L116.444 205.366C118.347 205.18 120.269 204.927 122.157 204.616L122.31 205.593C120.402 205.907 118.459 206.162 116.536 206.351ZM87.6034 204.481C85.7195 204.044 83.8241 203.538 81.9699 202.977L82.2439 202.028C84.0782 202.583 85.9533 203.084 87.8171 203.516L87.6034 204.481ZM128.025 204.457L127.811 203.493C129.679 203.056 131.553 202.553 133.382 201.997L133.657 202.946C131.809 203.508 129.914 204.016 128.025 204.457ZM76.4422 201.105C74.6244 200.421 72.8057 199.668 71.0365 198.867L71.4277 197.963C73.1778 198.755 74.977 199.5 76.7754 200.176L76.4422 201.105ZM139.182 201.066L138.848 200.137C140.635 199.464 142.428 198.719 144.177 197.925L144.569 198.829C142.801 199.632 140.989 200.385 139.182 201.066ZM65.7849 196.278C64.0742 195.364 62.3659 194.378 60.7078 193.349L61.209 192.503C62.8496 193.522 64.5395 194.496 66.232 195.4L65.7849 196.278ZM149.806 196.241L149.359 195.365C151.047 194.461 152.733 193.486 154.37 192.468L154.872 193.314C153.218 194.343 151.514 195.327 149.806 196.241ZM55.8259 190.094C54.2415 188.962 52.6712 187.762 51.1583 186.527L51.7609 185.753C53.2578 186.975 54.8116 188.163 56.379 189.282L55.8259 190.094ZM159.746 190.059L159.192 189.248C160.759 188.127 162.31 186.939 163.803 185.719L164.407 186.492C162.897 187.725 161.329 188.925 159.746 190.059ZM46.723 182.662C45.2908 181.331 43.8826 179.936 42.5384 178.517L43.2321 177.828C44.5621 179.232 45.9555 180.612 47.3728 181.929L46.723 182.662ZM168.837 182.627L168.187 181.895C169.601 180.58 170.993 179.2 172.325 177.792L173.019 178.48C171.673 179.903 170.266 181.298 168.837 182.627ZM38.6206 174.109C37.3665 172.604 36.1438 171.038 34.9859 169.456L35.7596 168.863C36.9052 170.429 38.1149 171.978 39.3558 173.467L38.6206 174.109ZM176.936 174.068L176.201 173.427C177.441 171.936 178.651 170.385 179.796 168.817L180.57 169.409C179.413 170.994 178.19 172.562 176.936 174.068ZM31.6493 164.575C30.592 162.917 29.5745 161.206 28.6251 159.487L29.4665 159C30.4056 160.7 31.4124 162.394 32.4586 164.034L31.6493 164.575ZM183.908 164.521L183.098 163.981C184.145 162.338 185.152 160.641 186.091 158.937L186.933 159.423C185.984 161.146 184.966 162.861 183.908 164.521ZM25.9262 154.213C25.0853 152.432 24.2908 150.602 23.565 148.773L24.4602 148.401C25.1785 150.21 25.9644 152.02 26.7964 153.782L25.9262 154.213ZM189.633 154.135L188.763 153.706C189.594 151.941 190.38 150.126 191.1 148.308L191.995 148.679C191.269 150.517 190.474 152.352 189.633 154.135ZM21.5476 143.182C20.9362 141.303 20.3777 139.381 19.8874 137.469L20.8223 137.218C21.3072 139.109 21.8598 141.011 22.4645 142.869L21.5476 143.182ZM194.009 143.077L193.092 142.766C193.693 140.91 194.244 139.007 194.727 137.112L195.663 137.362C195.173 139.278 194.617 141.201 194.009 143.077ZM18.5909 131.659C18.2216 129.718 17.9092 127.739 17.6621 125.776L18.6206 125.649C18.865 127.591 19.1741 129.549 19.5394 131.47L18.5909 131.659ZM196.952 131.55L196.004 131.363C196.366 129.443 196.673 127.484 196.915 125.541L197.874 125.666C197.629 127.631 197.319 129.61 196.952 131.55ZM17.1034 119.845C16.9795 117.873 16.9156 115.868 16.9135 113.887L17.8799 113.886C17.882 115.846 17.9453 117.83 18.068 119.781L17.1034 119.845ZM198.427 119.734L197.462 119.671C197.582 117.722 197.643 115.739 197.643 113.778L197.643 113.561H198.609L198.61 113.775C198.61 115.76 198.548 117.763 198.427 119.734ZM18.0545 107.992L17.0899 107.932C17.2098 105.956 17.3932 103.96 17.635 101.998L18.5939 102.122C18.3544 104.063 18.173 106.038 18.0545 107.992ZM197.449 107.668C197.323 105.712 197.135 103.738 196.889 101.8L197.847 101.672C198.096 103.631 198.286 105.626 198.413 107.603L197.449 107.668ZM19.4991 96.2996L18.55 96.1127C18.9146 94.1709 19.3464 92.2151 19.8329 90.2996L20.7683 90.5484C20.2869 92.4436 19.8598 94.3784 19.4991 96.2996ZM195.963 95.9806C195.595 94.0583 195.16 92.125 194.673 90.2339L195.608 89.9818C196.1 91.8931 196.539 93.8472 196.911 95.7902L195.963 95.9806ZM22.3977 84.8928L21.4799 84.5827C22.0865 82.7027 22.7618 80.817 23.4874 78.9776L24.3835 79.3481C23.6658 81.1677 22.9978 83.0332 22.3977 84.8928ZM193.026 84.5844C192.419 82.7274 191.745 80.8672 191.024 79.0554L191.918 78.682C192.648 80.5134 193.329 82.3936 193.942 84.2704L193.026 84.5844ZM26.7148 73.9472L25.8436 73.5182C26.682 71.7341 27.5885 69.9539 28.5378 68.2273L29.3801 68.7128C28.4408 70.4208 27.5441 72.182 26.7148 73.9472ZM188.682 73.6773C187.849 71.9206 186.949 70.166 186.005 68.4624L186.846 67.9744C187.8 69.6962 188.71 71.4699 189.551 73.2459L188.682 73.6773ZM32.3673 63.6653L31.557 63.1257C32.611 61.4672 33.7321 59.8211 34.8887 58.2334L35.6636 58.8247C34.5192 60.3957 33.41 62.0242 32.3673 63.6653ZM183.007 63.4324C181.962 61.7974 180.849 60.174 179.701 58.6073L180.474 58.0136C181.635 59.5971 182.759 61.238 183.816 62.8904L183.007 63.4324ZM39.2543 54.2109L38.5182 53.5703C39.7699 52.0628 41.0858 50.5768 42.4294 49.1539L43.1245 49.8413C41.7951 51.2493 40.4931 52.7196 39.2543 54.2109ZM176.099 54.007C174.857 52.5198 173.55 51.0539 172.218 49.65L172.91 48.9607C174.258 50.3793 175.578 51.8609 176.833 53.364L176.099 54.007ZM47.2577 45.7334L46.6069 45.002C48.037 43.6684 49.5264 42.3662 51.0332 41.1319L51.6372 41.9044C50.1462 43.1256 48.6727 44.414 47.2577 45.7334ZM168.072 45.5539C166.655 44.2406 165.177 42.9561 163.679 41.7362L164.282 40.9619C165.795 42.1949 167.289 43.493 168.72 44.8206L168.072 45.5539ZM56.2452 38.3693L55.6907 37.5592C57.2721 36.4246 58.9106 35.3278 60.5606 34.2988L61.0634 35.1437C59.4311 36.1618 57.8098 37.2471 56.2452 38.3693ZM159.058 38.2118C157.484 37.0908 155.858 36.0092 154.224 34.9969L154.724 34.1505C156.376 35.1734 158.02 36.2667 159.61 37.3998L159.058 38.2118ZM66.0713 32.2413L65.6225 31.365C67.3311 30.4476 69.0922 29.5746 70.8565 28.7705L71.2496 29.6744C69.504 30.4698 67.7619 31.3336 66.0713 32.2413ZM149.197 32.1056C147.5 31.2012 145.751 30.3415 143.999 29.5502L144.389 28.6449C146.16 29.4447 147.928 30.3138 149.644 31.2278L149.197 32.1056ZM76.5762 27.4551L76.2407 26.527C78.0528 25.8408 79.911 25.206 81.7637 24.6406L82.0398 25.5889C80.2069 26.148 78.3688 26.7761 76.5762 27.4551ZM138.649 27.3427C136.852 26.67 135.012 26.0488 133.178 25.4966L133.451 24.5473C135.304 25.1055 137.165 25.7336 138.981 26.4138L138.649 27.3427ZM87.6095 24.0877L87.3938 23.1234C89.2741 22.6823 91.1965 22.2981 93.1075 21.9804L93.2622 22.9572C91.3715 23.2712 89.4697 23.6514 87.6095 24.0877ZM127.603 24.0157C125.74 23.5857 123.837 23.2123 121.947 22.9055L122.098 21.9282C124.008 22.2384 125.932 22.6159 127.816 23.0505L127.603 24.0157ZM98.9742 22.2L98.8808 21.2154C100.8 21.0249 102.754 20.8947 104.69 20.8287L104.722 21.8176C102.806 21.8828 100.873 22.0116 98.9742 22.2ZM116.232 22.1693C114.331 21.9874 112.396 21.8657 110.483 21.8075L110.512 20.8186C112.445 20.8775 114.4 21.0005 116.322 21.1843L116.232 22.1693Z" fill="#D0CDE1"/>
<path d="M104.379 46.5006C116.922 46.5006 127.091 36.0911 127.091 23.2503C127.091 10.4095 116.922 0 104.379 0C91.8353 0 81.6667 10.4095 81.6667 23.2503C81.6667 36.0911 91.8353 46.5006 104.379 46.5006Z" fill="#3A7BEC"/>
<path d="M192.328 109.82C204.871 109.82 215.04 99.4109 215.04 86.5701C215.04 73.7293 204.871 63.3198 192.328 63.3198C179.784 63.3198 169.616 73.7293 169.616 86.5701C169.616 99.4109 179.784 109.82 192.328 109.82Z" fill="#3A7BEC"/>
<path d="M164.783 206.779C177.327 206.779 187.495 196.37 187.495 183.529C187.495 170.688 177.327 160.279 164.783 160.279C152.24 160.279 142.071 170.688 142.071 183.529C142.071 196.37 152.24 206.779 164.783 206.779Z" fill="#3A7BEC"/>
<path d="M55.572 210.737C68.1156 210.737 78.2841 200.327 78.2841 187.486C78.2841 174.646 68.1156 164.236 55.572 164.236C43.0285 164.236 32.86 174.646 32.86 187.486C32.86 200.327 43.0285 210.737 55.572 210.737Z" fill="#3A7BEC"/>
<path d="M22.7121 109.82C35.2556 109.82 45.4241 99.4109 45.4241 86.5701C45.4241 73.7293 35.2556 63.3198 22.7121 63.3198C10.1685 63.3198 0 73.7293 0 86.5701C0 99.4109 10.1685 109.82 22.7121 109.82Z" fill="#3A7BEC"/>
<path d="M114.112 21.3967H106.19C105.469 21.3967 104.778 21.1037 104.269 20.5823C103.76 20.0608 103.473 19.3536 103.473 18.6162V10.5064C103.473 10.4759 103.468 10.4458 103.456 10.4177C103.445 10.3896 103.428 10.364 103.407 10.3425C103.386 10.321 103.361 10.3039 103.334 10.2923C103.306 10.2806 103.277 10.2747 103.247 10.2747H98.0411C97.0807 10.2747 96.1595 10.6652 95.4803 11.3605C94.8012 12.0558 94.4196 12.9987 94.4196 13.982V32.5187C94.4196 33.5019 94.8012 34.4449 95.4803 35.1402C96.1595 35.8354 97.0807 36.226 98.0411 36.226H110.716C111.677 36.226 112.598 35.8354 113.277 35.1402C113.956 34.4449 114.338 33.5019 114.338 32.5187V21.6284C114.338 21.598 114.332 21.5678 114.321 21.5397C114.309 21.5116 114.293 21.4861 114.272 21.4645C114.251 21.443 114.226 21.426 114.198 21.4143C114.171 21.4027 114.141 21.3967 114.112 21.3967ZM108.906 30.665H99.8519C99.6118 30.665 99.3815 30.5674 99.2117 30.3936C99.0419 30.2197 98.9465 29.984 98.9465 29.7382C98.9465 29.4924 99.0419 29.2566 99.2117 29.0828C99.3815 28.909 99.6118 28.8114 99.8519 28.8114H108.906C109.146 28.8114 109.376 28.909 109.546 29.0828C109.716 29.2566 109.811 29.4924 109.811 29.7382C109.811 29.984 109.716 30.2197 109.546 30.3936C109.376 30.5674 109.146 30.665 108.906 30.665ZM108.906 26.0308H99.8519C99.6118 26.0308 99.3815 25.9332 99.2117 25.7594C99.0419 25.5856 98.9465 25.3498 98.9465 25.104C98.9465 24.8582 99.0419 24.6225 99.2117 24.4486C99.3815 24.2748 99.6118 24.1772 99.8519 24.1772H108.906C109.146 24.1772 109.376 24.2748 109.546 24.4486C109.716 24.6225 109.811 24.8582 109.811 25.104C109.811 25.3498 109.716 25.5856 109.546 25.7594C109.376 25.9332 109.146 26.0308 108.906 26.0308Z" fill="white"/>
<path d="M113.615 19.3454L105.477 11.0149C105.461 10.9988 105.441 10.9878 105.419 10.9834C105.397 10.979 105.375 10.9813 105.354 10.99C105.333 10.9987 105.316 11.0135 105.303 11.0325C105.291 11.0514 105.284 11.0737 105.284 11.0966V18.6161C105.284 18.8619 105.38 19.0976 105.549 19.2715C105.719 19.4453 105.949 19.5429 106.19 19.5429H113.535C113.557 19.5428 113.579 19.536 113.598 19.5233C113.616 19.5105 113.631 19.4925 113.639 19.4713C113.648 19.4502 113.65 19.427 113.646 19.4046C113.641 19.3822 113.631 19.3616 113.615 19.3454Z" fill="white"/>
<path d="M168.068 178.949C167.79 178.949 167.52 179.048 167.305 179.229C167.09 179.41 166.942 179.662 166.888 179.941C166.834 180.221 166.876 180.511 167.008 180.762C167.139 181.014 167.351 181.211 167.609 181.32C167.866 181.428 168.152 181.443 168.419 181.36C168.685 181.277 168.915 181.102 169.07 180.865C169.225 180.628 169.294 180.343 169.267 180.06C169.239 179.776 169.117 179.511 168.92 179.309C168.808 179.195 168.675 179.104 168.529 179.042C168.383 178.98 168.226 178.949 168.068 178.949Z" fill="white"/>
<path d="M174.769 174.021V174.017C174.731 173.846 174.647 173.689 174.526 173.564C174.406 173.44 174.254 173.352 174.087 173.311C172.743 172.975 170.629 173.333 168.286 174.293C166.033 175.19 163.972 176.526 162.217 178.228C161.738 178.716 161.292 179.237 160.884 179.789C159.983 179.726 159.079 179.874 158.243 180.224C155.639 181.397 154.895 184.399 154.697 185.632C154.669 185.807 154.68 185.986 154.73 186.156C154.78 186.326 154.868 186.482 154.987 186.612C155.105 186.741 155.252 186.841 155.414 186.903C155.577 186.965 155.751 186.988 155.924 186.97H155.929L158.83 186.646C158.834 186.684 158.838 186.719 158.841 186.751C158.878 187.113 159.036 187.45 159.287 187.707L160.703 189.157C160.954 189.415 161.283 189.577 161.637 189.615L161.734 189.625L161.418 192.591V192.597C161.403 192.748 161.417 192.9 161.459 193.046C161.501 193.191 161.571 193.326 161.665 193.444C161.758 193.561 161.873 193.659 162.003 193.731C162.134 193.803 162.276 193.848 162.424 193.864C162.458 193.868 162.493 193.87 162.528 193.87C162.591 193.87 162.653 193.865 162.715 193.854C163.926 193.655 166.857 192.903 168 190.223C168.339 189.369 168.484 188.449 168.426 187.529C168.968 187.113 169.479 186.657 169.957 186.165C171.618 184.386 172.925 182.292 173.805 180.001C174.738 177.63 175.089 175.45 174.769 174.021ZM169.941 182.095C169.571 182.475 169.098 182.733 168.584 182.838C168.07 182.943 167.537 182.89 167.053 182.685C166.569 182.479 166.155 182.132 165.863 181.686C165.572 181.24 165.416 180.715 165.416 180.179C165.415 179.642 165.571 179.118 165.862 178.671C166.153 178.225 166.566 177.877 167.051 177.671C167.535 177.466 168.068 177.412 168.582 177.516C169.096 177.62 169.568 177.879 169.939 178.258L169.941 178.26C170.438 178.761 170.72 179.443 170.725 180.157C170.73 180.871 170.459 181.557 169.969 182.066L169.941 182.095Z" fill="white"/>
<path d="M160.541 189.551C160.366 189.529 160.19 189.572 160.044 189.674C159.756 189.876 159.467 190.075 159.175 190.269C159.048 190.353 158.897 190.391 158.747 190.376C158.597 190.361 158.456 190.295 158.346 190.189C158.237 190.082 158.166 189.941 158.145 189.789C158.123 189.636 158.152 189.48 158.228 189.346L158.775 188.377C158.854 188.259 158.897 188.121 158.901 187.979C158.905 187.837 158.868 187.697 158.796 187.576C158.724 187.454 158.619 187.357 158.494 187.295C158.369 187.233 158.23 187.209 158.092 187.227C157.484 187.305 156.918 187.589 156.485 188.033C156.32 188.202 155.818 188.716 155.548 190.676C155.471 191.239 155.423 191.806 155.403 192.374C155.4 192.471 155.416 192.567 155.45 192.658C155.484 192.748 155.536 192.831 155.601 192.901C155.666 192.972 155.744 193.028 155.831 193.068C155.917 193.107 156.011 193.129 156.105 193.131C156.112 193.131 156.118 193.131 156.124 193.131H156.142C156.698 193.111 157.251 193.062 157.802 192.984C159.717 192.707 160.219 192.192 160.385 192.023C160.82 191.579 161.096 190.998 161.169 190.373C161.192 190.179 161.139 189.983 161.021 189.829C160.903 189.675 160.73 189.575 160.541 189.551Z" fill="white"/>
<path d="M47.7556 200.121H46.11C45.7827 200.121 45.4688 199.987 45.2373 199.751C45.0059 199.514 44.8759 199.192 44.8759 198.857V191.277C44.8759 190.942 45.0059 190.62 45.2373 190.383C45.4688 190.146 45.7827 190.013 46.11 190.013H47.7556C48.0829 190.013 48.3968 190.146 48.6283 190.383C48.8598 190.62 48.9898 190.942 48.9898 191.277V198.857C48.9898 199.192 48.8598 199.514 48.6283 199.751C48.3968 199.987 48.0829 200.121 47.7556 200.121Z" fill="white"/>
<path d="M59.2746 200.121H57.629C57.3017 200.121 56.9877 199.987 56.7563 199.751C56.5248 199.514 56.3948 199.192 56.3948 198.857V186.223C56.3948 185.888 56.5248 185.566 56.7563 185.33C56.9877 185.093 57.3017 184.959 57.629 184.959H59.2746C59.6019 184.959 59.9158 185.093 60.1473 185.33C60.3787 185.566 60.5087 185.888 60.5087 186.223V198.857C60.5087 199.192 60.3787 199.514 60.1473 199.751C59.9158 199.987 59.6019 200.121 59.2746 200.121Z" fill="white"/>
<path d="M65.034 200.121H63.3885C63.0611 200.121 62.7472 199.987 62.5158 199.75C62.2843 199.514 62.1543 199.192 62.1543 198.857V180.327C62.1543 179.992 62.2843 179.67 62.5158 179.434C62.7472 179.197 63.0611 179.063 63.3885 179.063H65.034C65.3614 179.063 65.6753 179.197 65.9067 179.434C66.1382 179.67 66.2682 179.992 66.2682 180.327V198.857C66.2682 199.192 66.1382 199.514 65.9067 199.75C65.6753 199.987 65.3614 200.121 65.034 200.121Z" fill="white"/>
<path d="M53.5151 200.121H51.8696C51.5422 200.121 51.2283 199.987 50.9969 199.75C50.7654 199.514 50.6354 199.192 50.6354 198.857V176.115C50.6354 175.78 50.7654 175.459 50.9969 175.222C51.2283 174.985 51.5422 174.852 51.8696 174.852H53.5151C53.8424 174.852 54.1564 174.985 54.3878 175.222C54.6193 175.459 54.7493 175.78 54.7493 176.115V198.857C54.7493 199.023 54.7174 199.187 54.6554 199.341C54.5933 199.494 54.5024 199.633 54.3878 199.75C54.2732 199.868 54.1371 199.961 53.9874 200.024C53.8377 200.088 53.6772 200.121 53.5151 200.121Z" fill="white"/>
<path d="M193.416 85.9613L192.24 84.7573C191.971 84.4816 191.606 84.3262 191.225 84.3252C190.844 84.3242 190.478 84.4775 190.207 84.7518L182.034 92.474C181.734 92.7459 181.55 93.1277 181.522 93.537C181.514 93.7402 181.546 93.9431 181.618 94.1329C181.689 94.3228 181.798 94.4956 181.937 94.6405L183.693 96.458L183.696 96.4612C183.968 96.7381 184.335 96.8941 184.718 96.8954H184.771C184.97 96.884 185.164 96.8326 185.343 96.7443C185.522 96.6559 185.682 96.5323 185.815 96.3805L193.411 88.0513C193.682 87.7758 193.835 87.4013 193.837 87.0101C193.839 86.6189 193.688 86.2431 193.419 85.9653L193.416 85.9613Z" fill="white"/>
<path d="M202.864 83.528L202.85 83.5137L201.307 81.9502C201.217 81.858 201.109 81.785 200.991 81.7355C200.873 81.6859 200.747 81.6609 200.619 81.6616C200.412 81.6618 200.211 81.7286 200.043 81.8525C200.043 81.8327 200.046 81.8133 200.047 81.7963C200.11 81.3925 200.026 80.9793 199.813 80.6337C199.473 80.1647 199.1 79.7219 198.696 79.309L198.693 79.3053C197.565 78.1974 196.239 77.322 194.788 76.7268C194.03 76.4081 193.218 76.2445 192.398 76.2451C191.337 76.2352 190.306 76.605 189.482 77.2905C189.248 77.5196 189.034 77.7698 188.844 78.0381C188.753 78.1667 188.705 78.3219 188.707 78.4807C188.709 78.6395 188.761 78.7934 188.856 78.9194C188.95 79.0454 189.081 79.137 189.231 79.1803C189.38 79.2237 189.539 79.2166 189.684 79.1601C189.81 79.1118 189.939 79.0713 190.07 79.0389C190.343 78.9798 190.623 78.9619 190.901 78.9858C191.477 79.0474 192.029 79.2548 192.508 79.5892C192.776 79.8205 192.99 80.1112 193.132 80.4393C193.274 80.7674 193.342 81.1244 193.33 81.4832C193.13 82.0662 192.825 82.6054 192.429 83.0726C192.324 83.2147 192.273 83.3911 192.285 83.5691C192.297 83.7471 192.371 83.9146 192.495 84.0406L194.044 85.6267C194.174 85.7603 194.35 85.8377 194.534 85.843C194.718 85.8483 194.897 85.7811 195.035 85.6553C195.473 85.2547 196.14 84.6509 196.373 84.5029C196.573 84.3663 196.799 84.2752 197.035 84.2356C197.212 84.2178 197.389 84.2561 197.544 84.3453C197.544 84.3531 197.544 84.3611 197.541 84.3687C197.539 84.3762 197.535 84.3831 197.53 84.389L197.448 84.4688L197.434 84.4817C197.252 84.6674 197.15 84.9195 197.149 85.1826C197.149 85.4456 197.25 85.6982 197.432 85.8845L197.437 85.8894L198.979 87.4525C199.07 87.5446 199.177 87.6176 199.295 87.667C199.413 87.7165 199.54 87.7415 199.667 87.7406C199.923 87.741 200.17 87.6383 200.353 87.4548L202.852 84.9279C202.86 84.9191 202.869 84.9099 202.877 84.9007C203.044 84.7126 203.136 84.4665 203.134 84.2118C203.132 83.9572 203.035 83.7129 202.864 83.528Z" fill="white"/>
<path d="M26.3181 85.1858C26.1398 85.1858 25.9655 85.1316 25.8173 85.0302C25.669 84.9288 25.5535 84.7847 25.4852 84.6161C25.417 84.4474 25.3992 84.2619 25.434 84.0829C25.4687 83.9038 25.5546 83.7394 25.6807 83.6103L27.7477 81.4942L25.6807 79.3782C25.5116 79.2051 25.4166 78.9704 25.4166 78.7256C25.4166 78.4808 25.5116 78.2461 25.6807 78.073C25.8497 77.9 26.079 77.8027 26.3181 77.8027C26.5572 77.8027 26.7865 77.9 26.9556 78.073L29.6601 80.8417C29.7439 80.9274 29.8103 81.0291 29.8556 81.1411C29.9009 81.253 29.9242 81.373 29.9242 81.4942C29.9242 81.6154 29.9009 81.7354 29.8556 81.8474C29.8103 81.9594 29.7439 82.0611 29.6601 82.1468L26.9556 84.9155C26.872 85.0013 26.7726 85.0694 26.6632 85.1157C26.5538 85.1621 26.4365 85.1859 26.3181 85.1858Z" fill="white"/>
<path d="M11.8938 87.9546C11.7754 87.9546 11.6582 87.9307 11.5488 87.8843C11.4395 87.838 11.3401 87.77 11.2564 87.6843C11.1726 87.5986 11.1062 87.4969 11.0609 87.3849C11.0156 87.2729 10.9923 87.1529 10.9923 87.0317V86.1088C10.9994 84.643 11.5712 83.2391 12.5835 82.2023C13.5958 81.1655 14.9668 80.5795 16.3987 80.5715H28.1212C28.3603 80.5715 28.5896 80.6688 28.7587 80.8418C28.9277 81.0149 29.0227 81.2496 29.0227 81.4944C29.0227 81.7392 28.9277 81.9739 28.7587 82.147C28.5896 82.3201 28.3603 82.4173 28.1212 82.4173H16.4014C15.4463 82.4231 14.532 82.8143 13.8569 83.5059C13.1817 84.1975 12.8003 85.1338 12.7953 86.1116V87.0317C12.7954 87.1529 12.772 87.2729 12.7267 87.3849C12.6814 87.4968 12.615 87.5986 12.5313 87.6843C12.4476 87.77 12.3482 87.838 12.2388 87.8843C12.1295 87.9307 12.0122 87.9546 11.8938 87.9546Z" fill="white"/>
<path d="M17.3029 92.5689C17.0638 92.5689 16.8345 92.4716 16.6655 92.2985C16.4964 92.1255 16.4014 91.8907 16.4014 91.646C16.4014 91.4012 16.4964 91.1665 16.6655 90.9934C16.8345 90.8203 17.0638 90.7231 17.3029 90.7231H29.0227C29.9778 90.7173 30.8921 90.3261 31.5672 89.6345C32.2424 88.9428 32.6238 88.0065 32.6287 87.0288V86.1087C32.6287 85.8639 32.7237 85.6292 32.8928 85.4561C33.0619 85.283 33.2912 85.1858 33.5303 85.1858C33.7694 85.1858 33.9987 85.283 34.1677 85.4561C34.3368 85.6292 34.4318 85.8639 34.4318 86.1087V87.0316C34.4247 88.4974 33.8529 89.9013 32.8406 90.9381C31.8283 91.9749 30.4573 92.5609 29.0253 92.5689L17.3029 92.5689Z" fill="white"/>
</svg>
